<?xml version="1.0" encoding="UTF-8"?>
<svg xmlns="http://www.w3.org/2000/svg" viewBox="0 0 600 700">
  <defs>
    <linearGradient id="indiaGradient" x1="0%" y1="0%" x2="100%" y2="100%">
      <stop offset="0%" stop-color="#F1BCCF" stop-opacity="0.85"/>
      <stop offset="100%" stop-color="#9F7BB5" stop-opacity="0.65"/>
    </linearGradient>
  </defs>
  <path fill="url(#indiaGradient)" stroke="#5E4F82" stroke-width="2" d="
    M 145 55
    C 140 45, 155 35, 170 30
    L 185 28 L 200 25 L 220 28 L 240 25
    L 258 30 L 275 28 L 290 32 L 305 35
    L 318 40 L 328 48
    C 335 55, 340 65, 342 80
    L 340 95 L 335 110
    C 330 125, 320 138, 308 148
    L 295 155 L 285 165 L 280 180
    C 282 195, 290 210, 302 228
    L 318 248 L 335 270 L 350 295
    L 362 320 L 368 348
    C 370 375, 365 400, 352 425
    L 335 448 L 315 470 L 292 492
    L 268 512 L 248 530 L 232 548
    L 218 565 L 205 580 L 188 590
    C 170 595, 155 588, 148 575
    L 142 555 L 140 535 L 138 515
    L 132 498 L 122 485 L 108 475
    C 95 468, 82 475, 72 490
    L 62 510 L 52 530
    C 42 545, 32 540, 28 525
    L 30 505 L 38 485 L 50 465
    L 65 448 L 78 430 L 88 412
    C 92 395, 88 375, 78 355
    L 65 335 L 55 315 L 50 295
    C 48 275, 52 255, 62 238
    L 78 220 L 95 205 L 108 188
    C 115 172, 112 155, 100 140
    L 85 125 L 72 110 L 65 92
    C 60 75, 65 58, 78 48
    L 95 40 L 115 38 L 132 42 L 145 55
    Z
    M 342 80
    C 355 72, 375 68, 395 72
    L 415 80 L 432 92 L 445 108
    C 455 125, 452 142, 440 155
    L 422 165 L 402 170 L 382 168
    C 365 165, 350 155, 342 140
    L 338 120 L 340 100 L 342 80
    Z
  "/>
</svg>
